<svg width="512" height="512" viewBox="0 0 512 512" fill="none" xmlns="http://www.w3.org/2000/svg">
<path d="M256 304C282.51 304 304 282.51 304 256C304 229.49 282.51 208 256 208C229.49 208 208 229.49 208 256C208 282.51 229.49 304 256 304Z" fill="black"/>
<path d="M416 304C442.51 304 464 282.51 464 256C464 229.49 442.51 208 416 208C389.49 208 368 229.49 368 256C368 282.51 389.49 304 416 304Z" fill="black"/>
<path d="M96 304C122.51 304 144 282.51 144 256C144 229.49 122.51 208 96 208C69.4903 208 48 229.49 48 256C48 282.51 69.4903 304 96 304Z" fill="black"/>
</svg>
