<svg id="Layer_1" data-name="Layer 1" xmlns="http://www.w3.org/2000/svg" viewBox="0 0 1400 1400"><defs><style>.cls-1{fill:#fff;}</style></defs><rect class="cls-1" x="551.64" y="127.08" width="300" height="300" rx="150"/><path class="cls-1" d="M700,1239.56H700c-193.28,0-350-156.69-350-350v-.06c0-193.29,156.69-350,350-350H700c193.28,0,350,156.68,350,350v.06C1050,1082.87,893.31,1239.56,700,1239.56Zm150-350h0a150,150,0,0,0-150-150h0a150,150,0,0,0-150,150h0a150,150,0,0,0,150,150h0A150,150,0,0,0,850,889.56Z"/></svg>