<svg width="91" height="78" viewBox="0 0 91 78" fill="none" xmlns="http://www.w3.org/2000/svg">
<path d="M65.0049 28C65.0049 41.3506 55.6682 51 45.5049 51C35.3416 51 26.0049 41.3506 26.0049 28C26.0049 14.6494 35.3416 5 45.5049 5C55.6682 5 65.0049 14.6494 65.0049 28Z" stroke="white" stroke-width="10"/>
<path d="M4.78589 74.1974C3.07684 73.0556 2.25106 70.9837 2.944 69.0486C3.88435 66.4227 5.58961 62.4966 8.45246 58.3594C11.2263 54.3509 14.0187 51.4284 15.9732 49.6076C17.5023 48.1831 19.7717 48.1301 21.5094 49.2911L21.668 49.397C24.3542 51.1917 24.7478 55.1206 22.7414 57.6525C21.365 59.3894 19.7281 61.6176 17.9523 64.3593C15.8739 67.5685 14.2051 70.4219 12.9607 72.6693C11.4725 75.3568 7.95792 76.3167 5.40352 74.6101L4.78589 74.1974Z" fill="white"/>
<path d="M86.1526 74.1425C87.8616 73.0007 88.6874 70.9288 87.9945 68.9937C87.0541 66.3678 85.3489 62.4417 82.486 58.3045C79.7122 54.296 76.9198 51.3735 74.9653 49.5527C73.4362 48.1282 71.1668 48.0751 69.4291 49.2361L69.2704 49.3421C66.5843 51.1367 66.1907 55.0656 68.1971 57.5976C69.5734 59.3345 71.2104 61.5626 72.9861 64.3044C75.0646 67.5135 76.7333 70.367 77.9778 72.6144C79.4659 75.3019 82.9806 76.2617 85.535 74.5552L86.1526 74.1425Z" fill="white"/>
</svg>
